<?xml version="1.0" standalone="no"?>
<!DOCTYPE svg PUBLIC "-//W3C//DTD SVG 20010904//EN"
 "http://www.w3.org/TR/2001/REC-SVG-20010904/DTD/svg10.dtd">
<svg version="1.0" xmlns="http://www.w3.org/2000/svg"
 width="1150.000000pt" height="975.000000pt" viewBox="0 0 1150.000000 975.000000"
 preserveAspectRatio="xMidYMid meet">

<g transform="translate(0.000000,975.000000) scale(0.100000,-0.100000)"
fill="#000000" stroke="none">
<path d="M5196 9734 c-140 -34 -117 -14 -987 -883 -867 -868 -847 -845 -884
-986 -52 -201 39 -401 223 -488 63 -30 74 -32 177 -32 121 1 180 17 266 75 24
16 405 390 846 832 625 627 807 814 826 853 45 91 60 160 55 256 -9 143 -75
258 -189 326 -100 60 -214 76 -333 47z"/>
<path d="M6480 9657 c-94 -29 -195 -81 -280 -142 -92 -66 -2415 -2392 -2474
-2477 -105 -150 -161 -314 -154 -453 7 -136 61 -221 170 -270 143 -64 356 -20
560 116 75 50 2411 2377 2489 2479 184 243 227 523 103 669 -20 23 -59 54 -88
68 -74 39 -219 43 -326 10z"/>
<path d="M7170 9000 c-90 -24 -196 -73 -282 -131 -72 -48 -2412 -2377 -2509
-2497 -198 -245 -250 -542 -123 -691 103 -120 308 -135 520 -37 169 78 153 64
1435 1345 1041 1041 1224 1228 1272 1302 199 303 191 592 -20 695 -76 37 -186
43 -293 14z"/>
<path d="M8432 8920 c-97 -26 -228 -91 -326 -163 -55 -40 -485 -463 -1344
-1321 -695 -693 -1288 -1291 -1318 -1328 -132 -160 -213 -340 -221 -494 -7
-124 13 -191 78 -256 63 -63 128 -83 253 -75 149 9 296 70 456 191 56 42 528
508 1371 1353 1102 1104 1294 1300 1343 1374 134 205 184 401 140 550 -22 75
-98 151 -173 173 -71 21 -169 19 -259 -4z"/>
<path d="M9395 8533 c-115 -26 -238 -84 -345 -164 -36 -26 -601 -585 -1257
-1241 -1277 -1278 -1251 -1250 -1323 -1425 -133 -319 -16 -563 268 -563 134 0
285 55 432 158 78 54 2349 2316 2446 2437 270 333 270 710 0 790 -46 14 -175
19 -221 8z"/>
<path d="M9643 7480 c-87 -23 -196 -76 -278 -135 -89 -64 -2343 -2327 -2389
-2398 -185 -285 -167 -584 40 -682 142 -67 362 -29 545 96 54 37 378 354 1217
1192 629 628 1163 1169 1187 1202 222 310 193 646 -63 725 -80 25 -165 25
-259 0z"/>
<path d="M10228 6711 c-89 -24 -202 -79 -291 -140 -109 -76 -2537 -2510 -2601
-2608 -168 -259 -187 -519 -47 -645 141 -127 399 -95 653 81 52 36 436 414
1319 1298 1321 1323 1290 1290 1363 1455 63 142 77 296 37 400 -57 148 -233
213 -433 159z"/>
<path d="M11145 6196 c-138 -26 -301 -104 -465 -224 -49 -35 -620 -598 -1638
-1616 -1701 -1699 -1671 -1667 -1783 -1891 -121 -244 -130 -432 -26 -533 140
-135 468 -54 782 193 109 86 3188 3171 3252 3259 236 321 298 624 156 758 -58
56 -160 75 -278 54z"/>
<path d="M380 4451 c-33 -12 -67 -33 -87 -54 -64 -71 -63 -51 -63 -987 0 -948
-2 -920 69 -991 66 -67 86 -69 591 -69 497 0 566 6 720 64 159 59 276 161 336
291 42 92 54 154 54 277 0 247 -95 397 -306 483 l-54 22 66 39 c144 84 224
227 224 402 0 213 -90 361 -275 453 -157 77 -195 82 -740 86 -454 3 -483 2
-535 -16z m784 -341 c208 -22 304 -130 275 -308 -15 -98 -64 -150 -171 -183
-52 -16 -94 -19 -309 -19 l-249 0 0 260 0 260 183 0 c100 0 222 -5 271 -10z
m48 -830 c111 -13 185 -41 233 -87 45 -44 63 -85 71 -161 15 -137 -52 -240
-183 -283 -62 -20 -93 -23 -345 -27 l-278 -4 0 286 0 286 208 0 c114 0 246 -5
294 -10z"/>
<path d="M2520 4451 c-73 -26 -125 -83 -140 -154 -8 -37 -10 -306 -8 -917 l3
-865 22 -41 c30 -55 73 -90 135 -109 76 -22 1319 -23 1394 0 82 24 124 87 124
184 0 73 -34 131 -95 161 l-50 25 -527 3 -528 3 0 254 0 254 463 3 c441 3 464
4 496 23 67 40 94 107 80 203 -7 51 -33 90 -80 117 -32 19 -55 20 -496 23
l-463 3 0 229 0 229 518 3 c567 3 558 2 615 64 37 39 53 118 38 179 -16 64
-37 92 -85 118 -41 22 -43 22 -701 24 -626 3 -663 2 -715 -16z"/>
<path d="M4530 4451 c-73 -26 -125 -83 -140 -154 -8 -37 -10 -306 -8 -917 l3
-865 22 -41 c30 -55 73 -90 135 -109 76 -22 1319 -23 1394 0 82 24 124 87 124
184 0 73 -34 131 -95 161 l-50 25 -527 3 -528 3 0 254 0 254 463 3 c441 3 464
4 496 23 67 40 94 107 80 203 -7 51 -33 90 -80 117 -32 19 -55 20 -496 23
l-463 3 0 229 0 229 518 3 c567 3 558 2 615 64 37 39 53 118 38 179 -16 64
-37 92 -85 118 -41 22 -43 22 -701 24 -626 3 -663 2 -715 -16z"/>
<path d="M10060 3863 c-51 -8 -127 -37 -205 -76 -78 -39 -103 -63 -1146 -1106
l-1067 -1066 -45 -92 c-78 -158 -95 -300 -51 -428 25 -71 111 -156 189 -185
86 -32 203 -30 310 4 168 54 120 10 1270 1161 1151 1150 1107 1102 1161 1270
35 107 36 224 4 310 -33 89 -115 167 -205 194 -63 20 -149 25 -215 14z"/>
<path d="M9640 2196 c-107 -29 -116 -36 -873 -795 -846 -848 -782 -768 -782
-966 0 -103 2 -114 32 -178 108 -227 372 -319 596 -207 62 31 1496 1466 1527
1529 87 174 46 381 -103 518 -104 96 -264 136 -397 99z"/>
<path d="M446 2073 c-65 -19 -130 -65 -166 -115 -110 -152 -104 -415 14 -545
106 -118 349 -138 478 -40 60 46 88 91 88 142 0 49 -13 64 -65 72 -36 6 -39 3
-104 -66 l-66 -71 -55 0 c-110 0 -174 64 -192 191 -25 175 56 309 186 309 61
0 92 -17 144 -79 35 -42 49 -51 75 -51 51 0 77 24 77 72 0 108 -138 199 -299
197 -36 0 -88 -7 -115 -16z"/>
<path d="M1165 2055 l-25 -24 0 -331 0 -331 25 -24 c30 -31 83 -33 116 -6 23
18 24 26 27 165 l3 146 149 0 149 0 3 -146 c3 -139 4 -147 27 -165 33 -27 86
-25 116 6 l25 24 0 331 0 331 -25 24 c-16 17 -35 25 -60 25 -25 0 -44 -8 -60
-25 -24 -23 -25 -30 -25 -145 l0 -120 -150 0 -150 0 0 120 c0 115 -1 122 -25
145 -16 17 -35 25 -60 25 -25 0 -44 -8 -60 -25z"/>
<path d="M2297 2058 c-27 -26 -257 -625 -257 -671 0 -39 32 -67 78 -67 52 0
67 14 95 90 l24 65 135 3 135 3 23 -63 c27 -75 50 -98 97 -98 38 0 83 36 83
67 0 10 -52 162 -115 338 -76 212 -122 326 -136 338 -33 27 -131 24 -162 -5z
m169 -440 c5 -16 -4 -18 -90 -18 -53 0 -96 3 -96 8 0 4 21 69 47 145 l48 137
42 -127 c24 -71 46 -136 49 -145z"/>
<path d="M2995 2055 l-25 -24 0 -336 c0 -322 1 -336 20 -355 24 -24 87 -27
116 -6 18 13 19 31 24 248 l5 233 144 -229 c80 -127 153 -238 163 -248 29 -29
112 -25 143 7 l25 24 0 336 c0 322 -1 336 -20 355 -24 24 -87 27 -116 6 -18
-13 -19 -32 -24 -254 l-5 -239 -144 233 c-78 129 -154 243 -168 254 -38 30
-107 27 -138 -5z"/>
<path d="M3965 2055 l-25 -24 0 -336 c0 -322 1 -336 20 -355 24 -24 87 -27
116 -6 18 13 19 31 24 248 l5 233 144 -229 c80 -127 153 -238 163 -248 29 -29
112 -25 143 7 l25 24 0 336 c0 322 -1 336 -20 355 -24 24 -87 27 -116 6 -18
-13 -19 -32 -24 -254 l-5 -239 -144 233 c-78 129 -154 243 -168 254 -38 30
-107 27 -138 -5z"/>
<path d="M5805 2055 l-25 -24 0 -326 0 -326 25 -24 24 -25 221 0 221 0 24 25
c30 30 31 54 4 89 l-20 26 -165 0 -164 0 0 280 0 281 -25 24 c-16 17 -35 25
-60 25 -25 0 -44 -8 -60 -25z"/>
<path d="M4957 2063 c-43 -11 -47 -45 -47 -363 0 -324 4 -351 52 -364 13 -3
129 -6 258 -6 265 0 280 3 280 63 0 69 -27 77 -246 77 l-174 0 0 85 0 85 163
0 c187 0 201 5 201 65 0 60 -14 65 -201 65 l-163 0 0 80 0 80 178 0 c209 0
226 5 230 67 5 71 -4 73 -278 72 -129 -1 -243 -3 -253 -6z"/>
</g>
</svg>
