<svg width="1507" height="1300" viewBox="0 0 1507 1300" fill="none" xmlns="http://www.w3.org/2000/svg">
<path d="M665.955 1.87339C647.289 6.40672 650.355 3.74006 534.355 119.607C418.755 235.34 421.422 232.273 416.489 251.073C409.555 277.873 421.689 304.54 446.222 316.14C454.622 320.14 456.089 320.407 469.822 320.407C485.955 320.273 493.822 318.14 505.289 310.407C508.489 308.273 559.289 258.407 618.089 199.473C701.422 115.873 725.689 90.9401 728.222 85.7401C734.222 73.6067 736.222 64.4067 735.555 51.6067C734.355 32.5401 725.555 17.2067 710.355 8.14006C697.022 0.140055 681.822 -1.99328 665.955 1.87339Z" fill="white"/>
<path d="M837.155 12.1398C824.622 16.0065 811.155 22.9398 799.822 31.0732C787.555 39.8732 477.822 350.007 469.955 361.34C455.955 381.34 448.489 403.207 449.422 421.74C450.355 439.873 457.555 451.207 472.089 457.74C491.155 466.273 519.555 460.407 546.755 442.273C556.755 435.607 868.222 125.34 878.622 111.74C903.155 79.3398 908.889 42.0065 892.355 22.5398C889.689 19.4732 884.489 15.3398 880.622 13.4732C870.755 8.27315 851.422 7.73982 837.155 12.1398Z" fill="white"/>
<path d="M929.155 99.7401C917.155 102.94 903.022 109.473 891.555 117.207C881.955 123.607 569.955 434.14 557.022 450.14C530.622 482.807 523.688 522.407 540.622 542.273C554.355 558.273 581.688 560.273 609.955 547.207C632.488 536.807 630.355 538.673 801.288 367.873C940.088 229.073 964.488 204.14 970.888 194.273C997.422 153.873 996.355 115.34 968.222 101.607C958.088 96.6734 943.422 95.8734 929.155 99.7401Z" fill="white"/>
<path d="M1097.42 110.407C1084.49 113.873 1067.02 122.54 1053.96 132.14C1046.62 137.473 989.289 193.873 874.755 308.273C782.089 400.673 703.022 480.407 699.022 485.34C681.422 506.673 670.622 530.673 669.555 551.207C668.622 567.74 671.289 576.673 679.955 585.34C688.355 593.74 697.022 596.407 713.689 595.34C733.555 594.14 753.155 586.007 774.489 569.873C781.955 564.273 844.889 502.14 957.289 389.473C1104.22 242.273 1129.82 216.14 1136.36 206.273C1154.22 178.94 1160.89 152.807 1155.02 132.94C1152.09 122.94 1141.96 112.807 1131.96 109.873C1122.49 107.073 1109.42 107.34 1097.42 110.407Z" fill="white"/>
<path d="M1225.82 162.007C1210.49 165.473 1194.09 173.207 1179.82 183.873C1175.02 187.34 1099.69 261.873 1012.22 349.34C841.956 519.74 845.422 516.007 835.822 539.34C818.089 581.873 833.689 614.407 871.556 614.407C889.422 614.407 909.556 607.073 929.156 593.34C939.556 586.14 1242.36 284.54 1255.29 268.407C1291.29 224.007 1291.29 173.74 1255.29 163.073C1249.16 161.207 1231.96 160.54 1225.82 162.007Z" fill="white"/>
<path d="M1258.89 302.406C1247.29 305.473 1232.76 312.54 1221.82 320.406C1209.96 328.94 909.422 630.673 903.289 640.14C878.622 678.14 881.022 718.006 908.622 731.073C927.555 740.006 956.889 734.94 981.289 718.273C988.489 713.34 1031.69 671.073 1143.56 559.34C1227.42 475.606 1298.62 403.473 1301.82 399.073C1331.42 357.74 1327.56 312.94 1293.42 302.406C1282.76 299.073 1271.42 299.073 1258.89 302.406Z" fill="white"/>
<path d="M1336.89 404.94C1325.02 408.14 1309.96 415.473 1298.09 423.607C1283.56 433.74 959.822 758.273 951.289 771.34C928.889 805.873 926.356 840.54 945.022 857.34C963.822 874.273 998.222 870.007 1032.09 846.54C1039.02 841.74 1090.22 791.34 1207.96 673.473C1384.09 497.073 1379.96 501.473 1389.69 479.473C1398.09 460.54 1399.96 440.007 1394.62 426.14C1387.02 406.407 1363.56 397.74 1336.89 404.94Z" fill="white"/>
<path d="M1459.16 473.607C1440.76 477.073 1419.02 487.473 1397.16 503.473C1390.62 508.14 1314.49 583.207 1178.76 718.94C951.955 945.473 955.955 941.207 941.022 971.073C924.889 1003.61 923.689 1028.67 937.555 1042.14C956.222 1060.14 999.955 1049.34 1041.82 1016.41C1056.36 1004.94 1466.89 593.607 1475.42 581.873C1506.89 539.073 1515.16 498.673 1496.22 480.807C1488.49 473.34 1474.89 470.807 1459.16 473.607Z" fill="white"/>
<path d="M23.822 706.273C19.422 707.873 14.8887 710.673 12.222 713.473C3.68871 722.94 3.82205 720.273 3.82205 845.073C3.82205 971.473 3.55538 967.74 13.022 977.207C21.822 986.14 24.4887 986.407 91.8221 986.407C158.089 986.407 167.289 985.607 187.822 977.873C209.022 970.007 224.622 956.407 232.622 939.073C238.222 926.807 239.822 918.54 239.822 902.14C239.822 869.207 227.155 849.207 199.022 837.74L191.822 834.807L200.622 829.607C219.822 818.407 230.489 799.34 230.489 776.007C230.489 747.607 218.489 727.873 193.822 715.607C172.889 705.34 167.822 704.673 95.1554 704.14C34.622 703.74 30.7554 703.873 23.822 706.273ZM128.355 751.74C156.089 754.673 168.889 769.073 165.022 792.807C163.022 805.873 156.489 812.807 142.222 817.207C135.289 819.34 129.689 819.74 101.022 819.74H67.822V785.073V750.407H92.2221C105.555 750.407 121.822 751.073 128.355 751.74ZM134.755 862.407C149.555 864.14 159.422 867.873 165.822 874.007C171.822 879.873 174.222 885.34 175.289 895.473C177.289 913.74 168.355 927.473 150.889 933.207C142.622 935.873 138.489 936.273 104.889 936.807L67.822 937.34V899.207V861.073H95.5554C110.755 861.073 128.355 861.74 134.755 862.407Z" fill="white"/>
<path d="M309.156 706.273C299.422 709.74 292.489 717.34 290.489 726.806C289.422 731.74 289.156 767.606 289.422 849.073L289.822 964.406L292.756 969.873C296.756 977.206 302.489 981.873 310.756 984.406C320.889 987.34 486.622 987.473 496.622 984.406C507.556 981.206 513.156 972.806 513.156 959.873C513.156 950.14 508.622 942.406 500.489 938.406L493.822 935.073L423.556 934.673L353.156 934.273V900.406V866.54L414.889 866.14C473.689 865.74 476.756 865.606 481.022 863.073C489.956 857.74 493.556 848.806 491.689 836.006C490.756 829.206 487.289 824.006 481.022 820.406C476.756 817.873 473.689 817.74 414.889 817.34L353.156 816.94V786.406V755.873L422.222 755.473C497.822 755.073 496.622 755.206 504.222 746.94C509.156 741.74 511.289 731.206 509.289 723.073C507.156 714.54 504.356 710.806 497.956 707.34C492.489 704.406 492.222 704.406 404.489 704.14C321.022 703.74 316.089 703.873 309.156 706.273Z" fill="white"/>
<path d="M577.156 706.273C567.422 709.74 560.489 717.34 558.489 726.806C557.422 731.74 557.156 767.606 557.422 849.073L557.822 964.406L560.756 969.873C564.756 977.206 570.489 981.873 578.756 984.406C588.889 987.34 754.622 987.473 764.622 984.406C775.556 981.206 781.156 972.806 781.156 959.873C781.156 950.14 776.622 942.406 768.489 938.406L761.822 935.073L691.556 934.673L621.156 934.273V900.406V866.54L682.889 866.14C741.689 865.74 744.756 865.606 749.022 863.073C757.956 857.74 761.556 848.806 759.689 836.006C758.756 829.206 755.289 824.006 749.022 820.406C744.756 817.873 741.689 817.74 682.889 817.34L621.156 816.94V786.406V755.873L690.222 755.473C765.822 755.073 764.622 755.206 772.222 746.94C777.156 741.74 779.289 731.206 777.289 723.073C775.156 714.54 772.356 710.806 765.956 707.34C760.489 704.406 760.222 704.406 672.489 704.14C589.022 703.74 584.089 703.873 577.156 706.273Z" fill="white"/>
<path d="M1314.49 784.673C1307.69 785.74 1297.56 789.607 1287.16 794.807C1276.76 800.007 1273.42 803.207 1134.36 942.273L992.089 1084.41L986.089 1096.67C975.689 1117.74 973.422 1136.67 979.289 1153.74C982.622 1163.21 994.089 1174.54 1004.49 1178.41C1015.96 1182.67 1031.56 1182.41 1045.82 1177.87C1068.22 1170.67 1061.82 1176.54 1215.16 1023.07C1368.62 869.74 1362.76 876.14 1369.96 853.74C1374.62 839.473 1374.76 823.873 1370.49 812.407C1366.09 800.54 1355.16 790.14 1343.16 786.54C1334.76 783.873 1323.29 783.207 1314.49 784.673Z" fill="white"/>
<path d="M1258.49 1006.94C1244.22 1010.81 1243.02 1011.74 1142.09 1112.94C1029.29 1226.01 1037.82 1215.34 1037.82 1241.74C1037.82 1255.47 1038.09 1256.94 1042.09 1265.47C1056.49 1295.74 1091.69 1308.01 1121.56 1293.07C1129.82 1288.94 1321.02 1097.61 1325.16 1089.21C1336.76 1066.01 1331.29 1038.41 1311.42 1020.14C1297.56 1007.34 1276.22 1002.01 1258.49 1006.94Z" fill="white"/>
<path d="M32.6219 1023.34C23.9553 1025.87 15.2886 1032.01 10.4886 1038.67C-4.17808 1058.94 -3.37808 1094.01 12.3553 1111.34C26.4886 1127.07 58.8886 1129.74 76.0886 1116.67C84.0886 1110.54 87.8219 1104.54 87.8219 1097.74C87.8219 1091.21 86.0886 1089.21 79.1553 1088.14C74.3553 1087.34 73.9553 1087.74 65.2886 1096.94L56.4886 1106.41H49.1553C34.4886 1106.41 25.9553 1097.87 23.5553 1080.94C20.2219 1057.61 31.0219 1039.74 48.3553 1039.74C56.4886 1039.74 60.6219 1042.01 67.5553 1050.27C72.2219 1055.87 74.0886 1057.07 77.5553 1057.07C84.3553 1057.07 87.8219 1053.87 87.8219 1047.47C87.8219 1033.07 69.4219 1020.94 47.9553 1021.21C43.1553 1021.21 36.2219 1022.14 32.6219 1023.34Z" fill="white"/>
<path d="M128.489 1025.74L125.155 1028.94V1073.07V1117.21L128.489 1120.41C132.489 1124.54 139.555 1124.81 143.955 1121.21C147.022 1118.81 147.155 1117.74 147.555 1099.21L147.955 1079.74H167.822H187.689L188.089 1099.21C188.489 1117.74 188.622 1118.81 191.689 1121.21C196.089 1124.81 203.155 1124.54 207.155 1120.41L210.489 1117.21V1073.07V1028.94L207.155 1025.74C205.022 1023.47 202.489 1022.41 199.155 1022.41C195.822 1022.41 193.289 1023.47 191.155 1025.74C187.955 1028.81 187.822 1029.74 187.822 1045.07V1061.07H167.822H147.822V1045.07C147.822 1029.74 147.689 1028.81 144.489 1025.74C142.355 1023.47 139.822 1022.41 136.489 1022.41C133.155 1022.41 130.622 1023.47 128.489 1025.74Z" fill="white"/>
<path d="M279.422 1025.34C275.822 1028.81 245.155 1108.67 245.155 1114.81C245.155 1120.01 249.422 1123.74 255.555 1123.74C262.489 1123.74 264.489 1121.87 268.222 1111.74L271.422 1103.07L289.422 1102.67L307.422 1102.27L310.489 1110.67C314.089 1120.67 317.155 1123.74 323.422 1123.74C328.489 1123.74 334.489 1118.94 334.489 1114.81C334.489 1113.47 327.555 1093.21 319.155 1069.74C309.022 1041.47 302.889 1026.27 301.022 1024.67C296.622 1021.07 283.555 1021.47 279.422 1025.34ZM301.955 1084.01C302.622 1086.14 301.422 1086.41 289.955 1086.41C282.889 1086.41 277.155 1086.01 277.155 1085.34C277.155 1084.81 279.955 1076.14 283.422 1066.01L289.822 1047.74L295.422 1064.67C298.622 1074.14 301.555 1082.81 301.955 1084.01Z" fill="white"/>
<path d="M372.489 1025.74L369.155 1028.94V1073.74C369.155 1116.67 369.289 1118.54 371.822 1121.07C375.022 1124.27 383.422 1124.67 387.289 1121.87C389.689 1120.14 389.822 1117.74 390.489 1088.81L391.155 1057.74L410.355 1088.27C421.022 1105.21 430.755 1120.01 432.089 1121.34C435.955 1125.21 447.022 1124.67 451.155 1120.41L454.489 1117.21V1072.41C454.489 1029.47 454.355 1027.61 451.822 1025.07C448.622 1021.87 440.222 1021.47 436.355 1024.27C433.955 1026.01 433.822 1028.54 433.155 1058.14L432.489 1090.01L413.289 1058.94C402.889 1041.74 392.755 1026.54 390.889 1025.07C385.822 1021.07 376.622 1021.47 372.489 1025.74Z" fill="white"/>
<path d="M501.822 1025.74L498.488 1028.94V1073.74C498.488 1116.67 498.622 1118.54 501.155 1121.07C504.355 1124.27 512.755 1124.67 516.622 1121.87C519.022 1120.14 519.155 1117.74 519.822 1088.81L520.488 1057.74L539.688 1088.27C550.355 1105.21 560.088 1120.01 561.422 1121.34C565.288 1125.21 576.355 1124.67 580.488 1120.41L583.822 1117.21V1072.41C583.822 1029.47 583.688 1027.61 581.155 1025.07C577.955 1021.87 569.555 1021.47 565.688 1024.27C563.288 1026.01 563.155 1028.54 562.488 1058.14L561.822 1090.01L542.622 1058.94C532.222 1041.74 522.088 1026.54 520.222 1025.07C515.155 1021.07 505.955 1021.47 501.822 1025.74Z" fill="white"/>
<path d="M747.156 1025.74L743.822 1028.94V1072.41V1115.87L747.156 1119.07L750.356 1122.41H779.822H809.289L812.489 1119.07C816.489 1115.07 816.622 1111.87 813.022 1107.21L810.356 1103.74H788.356H766.489V1066.41V1028.94L763.156 1025.74C761.022 1023.47 758.489 1022.41 755.156 1022.41C751.822 1022.41 749.289 1023.47 747.156 1025.74Z" fill="white"/>
<path d="M634.089 1024.67C628.356 1026.14 627.822 1030.67 627.822 1073.07C627.822 1116.27 628.356 1119.87 634.756 1121.61C636.489 1122.01 651.956 1122.41 669.156 1122.41C704.489 1122.41 706.489 1122.01 706.489 1114.01C706.489 1104.81 702.889 1103.74 673.689 1103.74H650.489V1092.41V1081.07H672.222C697.156 1081.07 699.022 1080.41 699.022 1072.41C699.022 1064.41 697.156 1063.74 672.222 1063.74H650.489V1053.07V1042.41H674.222C702.089 1042.41 704.356 1041.74 704.889 1033.47C705.556 1024.01 704.356 1023.74 667.822 1023.87C650.622 1024.01 635.422 1024.27 634.089 1024.67Z" fill="white"/>
</svg>
